<svg xmlns="http://www.w3.org/2000/svg" version="1.1" xmlns:xlink="http://www.w3.org/1999/xlink" xmlns:svgjs="http://svgjs.dev/svgjs" width="128" height="128" viewBox="0 0 128 128"><g transform="matrix(0.8046875,0,0,0.8046875,12.677077363896856,5.068321572580643)"><svg viewBox="0 0 135 155" data-background-color="#ffffff" preserveAspectRatio="xMidYMid meet" height="146" width="128" xmlns="http://www.w3.org/2000/svg" xmlns:xlink="http://www.w3.org/1999/xlink"><g id="tight-bounds" transform="matrix(1,0,0,1,-0.23209169054442214,0.25)"><svg viewBox="0 0 135.46418338108884 154.5" height="154.5" width="135.46418338108884"><g><svg viewBox="0 0 135.46418338108884 154.5" height="154.5" width="135.46418338108884"><g><svg viewBox="0 0 135.46418338108884 154.5" height="154.5" width="135.46418338108884"><g id="textblocktransform"><svg viewBox="0 0 135.46418338108884 154.5" height="154.5" width="135.46418338108884" id="textblock"><g><svg viewBox="0 0 135.46418338108884 154.5" height="154.5" width="135.46418338108884"><g transform="matrix(1,0,0,1,0,0)"><svg width="135.46418338108884" viewBox="3.45 -34.9 30.599999999999998 34.9" height="154.5" data-palette-color="#1f62ff"><path d="M15.65-34.9Q21.15-34.9 25.33-32.75 29.5-30.6 31.78-26.63 34.05-22.65 34.05-17.4L34.05-17.4Q34.05-12.15 31.78-8.22 29.5-4.3 25.33-2.15 21.15 0 15.65 0L15.65 0 3.45 0 3.45-34.9 15.65-34.9ZM15.4-5.95Q20.9-5.95 23.9-8.95 26.9-11.95 26.9-17.4L26.9-17.4Q26.9-22.85 23.9-25.93 20.9-29 15.4-29L15.4-29 10.45-29 10.45-5.95 15.4-5.95Z" opacity="1" transform="matrix(1,0,0,1,0,0)" fill="#1f62ff" class="wordmark-text-0" data-fill-palette-color="primary" id="text-0"></path></svg></g></svg></g></svg></g></svg></g></svg></g><defs></defs></svg><rect width="135.46418338108884" height="154.5" fill="none" stroke="none" visibility="hidden"></rect></g></svg></g></svg>