<svg xmlns="http://www.w3.org/2000/svg" xmlns:xlink="http://www.w3.org/1999/xlink" width="41" zoomAndPan="magnify" viewBox="0 0 30.75 30.000001" height="40" preserveAspectRatio="xMidYMid meet" version="1.0"><defs><clipPath id="3d9e8e1981"><path d="M 16.816406 0.375 L 27.015625 0.375 L 27.015625 28.894531 L 16.816406 28.894531 Z M 16.816406 0.375 " clip-rule="nonzero"/></clipPath><clipPath id="6e784a623e"><path d="M 3.726562 0.375 L 13.800781 0.375 L 13.800781 28.894531 L 3.726562 28.894531 Z M 3.726562 0.375 " clip-rule="nonzero"/></clipPath></defs><g clip-path="url(#3d9e8e1981)"><path fill="#1f62ff" d="M 26.585938 14.632812 C 27.375 22.476562 27.050781 28.894531 25.867188 28.894531 C 24.6875 28.894531 21.460938 22.476562 18.699219 14.632812 C 15.941406 6.792969 16.261719 0.375 19.417969 0.375 C 22.570312 0.375 25.796875 6.792969 26.585938 14.632812 " fill-opacity="1" fill-rule="nonzero"/></g><g clip-path="url(#6e784a623e)"><path fill="#1f62ff" d="M 13.363281 14.632812 C 14.152344 22.476562 13.832031 28.894531 12.648438 28.894531 C 11.464844 28.894531 8.238281 22.476562 5.480469 14.632812 C 2.71875 6.792969 3.042969 0.375 6.195312 0.375 C 9.351562 0.375 12.578125 6.792969 13.363281 14.632812 " fill-opacity="1" fill-rule="nonzero"/></g></svg>