<svg xmlns="http://www.w3.org/2000/svg" xmlns:xlink="http://www.w3.org/1999/xlink" width="41" zoomAndPan="magnify" viewBox="0 0 30.75 30.000001" height="40" preserveAspectRatio="xMidYMid meet" version="1.0"><defs><clipPath id="00970f7cd9"><path d="M 0.6875 0 L 29.953125 0 L 29.953125 29.03125 L 0.6875 29.03125 Z M 0.6875 0 " clip-rule="nonzero"/></clipPath></defs><g clip-path="url(#00970f7cd9)"><path fill="#1f62ff" d="M 29.429688 10.507812 C 29.035156 10.015625 28.410156 9.777344 27.800781 9.695312 C 25.273438 9.4375 22.730469 9.285156 20.207031 8.996094 C 19.410156 7.128906 18.730469 5.207031 17.972656 3.320312 C 17.601562 2.441406 17.375 1.449219 16.6875 0.75 C 16.226562 0.261719 15.5 0.00390625 14.847656 0.222656 C 14.089844 0.46875 13.613281 1.191406 13.332031 1.902344 C 12.429688 4.191406 11.519531 6.480469 10.621094 8.773438 C 10.570312 8.902344 10.507812 9.058594 10.335938 9.035156 C 7.917969 9.25 5.5 9.457031 3.078125 9.671875 C 2.355469 9.738281 1.582031 10.015625 1.171875 10.65625 C 0.695312 11.421875 0.890625 12.492188 1.496094 13.132812 C 3.511719 14.933594 5.492188 16.777344 7.503906 18.582031 C 7.019531 20.992188 6.46875 23.386719 5.964844 25.792969 C 5.871094 26.3125 5.632812 26.820312 5.710938 27.359375 C 5.792969 28.132812 6.304688 28.929688 7.09375 29.113281 C 7.804688 29.269531 8.546875 29.03125 9.140625 28.640625 C 11.210938 27.304688 13.304688 25.996094 15.371094 24.652344 C 15.5625 24.742188 15.75 24.84375 15.929688 24.960938 C 17.867188 26.214844 19.824219 27.433594 21.75 28.699219 C 22.332031 29.152344 23.148438 29.265625 23.824219 28.96875 C 24.640625 28.632812 25.179688 27.726562 25.066406 26.839844 C 24.457031 24.101562 23.824219 21.363281 23.253906 18.613281 C 25.0625 16.960938 26.851562 15.285156 28.65625 13.625 C 28.953125 13.359375 29.289062 13.121094 29.484375 12.761719 C 29.886719 12.089844 29.941406 11.140625 29.429688 10.507812 Z M 29.429688 10.507812 " fill-opacity="1" fill-rule="nonzero"/></g></svg>