<svg xmlns="http://www.w3.org/2000/svg" xmlns:xlink="http://www.w3.org/1999/xlink" width="41" zoomAndPan="magnify" viewBox="0 0 30.75 30.000001" height="40" preserveAspectRatio="xMidYMid meet" version="1.0"><defs><clipPath id="e48c25cda6"><path d="M 0.988281 0.625 L 29.523438 0.625 L 29.523438 28.429688 L 0.988281 28.429688 Z M 0.988281 0.625 " clip-rule="nonzero"/></clipPath></defs><g clip-path="url(#e48c25cda6)"><path fill="#1f62ff" d="M 28.230469 11.957031 C 27.855469 11.492188 27.5 11.050781 27.371094 10.65625 C 27.234375 10.226562 27.265625 9.644531 27.296875 9.023438 C 27.34375 8.074219 27.398438 6.996094 26.796875 6.167969 C 26.195312 5.332031 25.15625 5.050781 24.242188 4.804688 C 23.652344 4.644531 23.09375 4.492188 22.742188 4.234375 C 22.398438 3.980469 22.085938 3.496094 21.761719 2.988281 C 21.242188 2.179688 20.65625 1.261719 19.664062 0.9375 C 18.714844 0.628906 17.726562 1.007812 16.851562 1.34375 C 16.269531 1.570312 15.71875 1.78125 15.253906 1.78125 C 14.792969 1.78125 14.242188 1.570312 13.660156 1.34375 C 12.785156 1.007812 11.796875 0.628906 10.847656 0.9375 C 9.855469 1.261719 9.269531 2.179688 8.75 2.988281 C 8.421875 3.496094 8.113281 3.980469 7.769531 4.234375 C 7.414062 4.492188 6.859375 4.644531 6.269531 4.800781 C 5.355469 5.050781 4.316406 5.332031 3.710938 6.167969 C 3.113281 6.996094 3.167969 8.074219 3.214844 9.023438 C 3.246094 9.644531 3.277344 10.226562 3.136719 10.65625 C 3.011719 11.050781 2.65625 11.492188 2.28125 11.957031 C 1.675781 12.707031 0.988281 13.558594 0.988281 14.625 C 0.988281 15.695312 1.675781 16.546875 2.28125 17.296875 C 2.65625 17.761719 3.011719 18.199219 3.136719 18.597656 C 3.277344 19.023438 3.246094 19.609375 3.214844 20.230469 C 3.167969 21.179688 3.113281 22.253906 3.710938 23.085938 C 4.316406 23.921875 5.355469 24.203125 6.269531 24.449219 C 6.859375 24.609375 7.414062 24.757812 7.769531 25.019531 C 8.113281 25.273438 8.421875 25.753906 8.75 26.265625 C 9.269531 27.074219 9.855469 27.988281 10.847656 28.3125 C 11.09375 28.394531 11.34375 28.429688 11.597656 28.429688 C 12.304688 28.429688 13.015625 28.15625 13.660156 27.90625 C 14.242188 27.683594 14.792969 27.472656 15.253906 27.472656 C 15.71875 27.472656 16.269531 27.683594 16.851562 27.90625 C 17.496094 28.15625 18.203125 28.429688 18.914062 28.429688 C 19.164062 28.429688 19.417969 28.394531 19.664062 28.3125 C 20.65625 27.988281 21.242188 27.074219 21.761719 26.265625 C 22.089844 25.753906 22.398438 25.273438 22.742188 25.019531 C 23.09375 24.757812 23.652344 24.609375 24.242188 24.449219 C 25.15625 24.203125 26.195312 23.921875 26.796875 23.085938 C 27.398438 22.253906 27.34375 21.179688 27.296875 20.230469 C 27.265625 19.609375 27.234375 19.023438 27.371094 18.597656 C 27.5 18.199219 27.855469 17.761719 28.230469 17.296875 C 28.835938 16.546875 29.523438 15.695312 29.523438 14.625 C 29.523438 13.558594 28.835938 12.707031 28.230469 11.957031 Z M 28.230469 11.957031 " fill-opacity="1" fill-rule="nonzero"/></g><path fill="#0e0c0b" d="M 27.066406 16.34375 C 26.621094 16.894531 26.160156 17.464844 25.945312 18.128906 C 25.722656 18.824219 25.761719 19.578125 25.796875 20.304688 C 25.835938 21.074219 25.871094 21.796875 25.585938 22.195312 C 25.292969 22.601562 24.59375 22.789062 23.851562 22.988281 C 23.15625 23.175781 22.4375 23.371094 21.859375 23.796875 C 21.289062 24.214844 20.886719 24.839844 20.5 25.445312 C 20.082031 26.097656 19.683594 26.714844 19.203125 26.875 C 18.753906 27.019531 18.089844 26.765625 17.386719 26.496094 C 16.703125 26.230469 15.992188 25.957031 15.253906 25.957031 C 14.515625 25.957031 13.808594 26.230469 13.125 26.496094 C 12.421875 26.765625 11.757812 27.019531 11.308594 26.875 C 10.824219 26.714844 10.429688 26.097656 10.007812 25.445312 C 9.621094 24.839844 9.222656 24.214844 8.652344 23.796875 C 8.074219 23.371094 7.351562 23.175781 6.65625 22.988281 C 5.917969 22.789062 5.21875 22.597656 4.925781 22.195312 C 4.636719 21.796875 4.675781 21.074219 4.714844 20.304688 C 4.75 19.578125 4.789062 18.824219 4.5625 18.128906 C 4.351562 17.464844 3.890625 16.894531 3.445312 16.34375 C 2.953125 15.730469 2.488281 15.15625 2.488281 14.625 C 2.488281 14.097656 2.953125 13.519531 3.445312 12.910156 C 3.890625 12.359375 4.351562 11.789062 4.566406 11.125 C 4.789062 10.429688 4.75 9.675781 4.714844 8.945312 C 4.675781 8.179688 4.636719 7.453125 4.925781 7.058594 C 5.21875 6.652344 5.917969 6.464844 6.65625 6.261719 C 7.351562 6.074219 8.074219 5.882812 8.652344 5.457031 C 9.222656 5.039062 9.621094 4.414062 10.011719 3.808594 C 10.429688 3.152344 10.824219 2.535156 11.308594 2.378906 C 11.757812 2.230469 12.421875 2.488281 13.125 2.757812 C 13.808594 3.019531 14.515625 3.292969 15.253906 3.292969 C 15.992188 3.292969 16.703125 3.019531 17.386719 2.757812 C 18.089844 2.488281 18.753906 2.230469 19.203125 2.378906 C 19.683594 2.535156 20.082031 3.152344 20.5 3.808594 C 20.890625 4.414062 21.289062 5.039062 21.859375 5.457031 C 22.4375 5.878906 23.15625 6.074219 23.851562 6.261719 C 24.59375 6.464844 25.292969 6.652344 25.585938 7.058594 C 25.871094 7.453125 25.835938 8.179688 25.796875 8.945312 C 25.761719 9.675781 25.722656 10.429688 25.945312 11.125 C 26.160156 11.789062 26.621094 12.359375 27.066406 12.910156 C 27.558594 13.519531 28.023438 14.097656 28.023438 14.625 C 28.023438 15.15625 27.558594 15.730469 27.066406 16.34375 Z M 27.066406 16.34375 " fill-opacity="1" fill-rule="nonzero"/><path fill="#1f62ff" d="M 12.121094 13.328125 C 13.554688 13.328125 14.722656 12.148438 14.722656 10.703125 C 14.722656 9.253906 13.554688 8.078125 12.121094 8.078125 C 10.6875 8.078125 9.519531 9.253906 9.519531 10.703125 C 9.519531 12.148438 10.6875 13.328125 12.121094 13.328125 Z M 12.121094 9.589844 C 12.730469 9.589844 13.222656 10.089844 13.222656 10.703125 C 13.222656 11.316406 12.730469 11.816406 12.121094 11.816406 C 11.511719 11.816406 11.019531 11.316406 11.019531 10.703125 C 11.019531 10.089844 11.511719 9.589844 12.121094 9.589844 Z M 20.503906 9.757812 L 11.132812 20.492188 C 10.984375 20.664062 10.777344 20.75 10.570312 20.75 C 10.390625 20.75 10.214844 20.6875 10.074219 20.5625 C 9.761719 20.285156 9.730469 19.808594 10.007812 19.492188 L 19.378906 8.757812 C 19.652344 8.445312 20.125 8.414062 20.4375 8.691406 C 20.75 8.96875 20.777344 9.445312 20.503906 9.757812 Z M 18.390625 15.925781 C 16.953125 15.925781 15.789062 17.101562 15.789062 18.550781 C 15.789062 19.996094 16.953125 21.175781 18.390625 21.175781 C 19.824219 21.175781 20.992188 19.996094 20.992188 18.550781 C 20.992188 17.101562 19.824219 15.925781 18.390625 15.925781 Z M 18.390625 19.660156 C 17.78125 19.660156 17.289062 19.164062 17.289062 18.550781 C 17.289062 17.9375 17.78125 17.4375 18.390625 17.4375 C 18.996094 17.4375 19.492188 17.9375 19.492188 18.550781 C 19.492188 19.164062 18.996094 19.660156 18.390625 19.660156 Z M 18.390625 19.660156 " fill-opacity="1" fill-rule="nonzero"/></svg>