<svg xmlns="http://www.w3.org/2000/svg" xmlns:xlink="http://www.w3.org/1999/xlink" width="1120" zoomAndPan="magnify" viewBox="0 0 840 778.499977" height="1038" preserveAspectRatio="xMidYMid meet" version="1.0"><defs><clipPath id="168051c74f"><path d="M 17.414062 2 L 822.394531 2 L 822.394531 775 L 17.414062 775 Z M 17.414062 2 " clip-rule="nonzero"/></clipPath></defs><g clip-path="url(#168051c74f)"><path fill="#1f62ff" d="M 785.863281 314.035156 C 775.285156 301.042969 765.300781 288.769531 761.699219 277.675781 C 757.8125 265.699219 758.636719 249.320312 759.511719 231.984375 C 760.859375 205.417969 762.382812 175.308594 745.492188 152.101562 C 728.441406 128.671875 699.179688 120.824219 673.363281 113.90625 C 656.746094 109.445312 641.042969 105.234375 631.085938 97.984375 C 621.347656 90.898438 612.617188 77.398438 603.378906 63.101562 C 588.761719 40.496094 572.199219 14.875 544.277344 5.804688 C 517.4375 -2.914062 489.542969 7.742188 464.933594 17.144531 C 448.46875 23.429688 432.914062 29.367188 419.890625 29.367188 C 406.859375 29.367188 391.3125 23.429688 374.839844 17.136719 C 350.230469 7.734375 322.339844 -2.914062 295.496094 5.804688 C 267.574219 14.875 251.011719 40.496094 236.390625 63.101562 C 227.148438 77.398438 218.425781 90.898438 208.6875 97.984375 C 198.730469 105.234375 183.027344 109.445312 166.40625 113.898438 C 140.585938 120.824219 111.324219 128.667969 94.28125 152.097656 C 77.390625 175.300781 78.914062 205.417969 80.261719 231.984375 C 81.136719 249.320312 81.96875 265.691406 78.074219 277.675781 C 74.472656 288.769531 64.488281 301.042969 53.910156 314.035156 C 36.804688 335.058594 17.414062 358.882812 17.414062 388.761719 C 17.414062 418.636719 36.804688 442.460938 53.910156 463.484375 C 64.488281 476.476562 74.472656 488.75 78.074219 499.84375 C 81.960938 511.820312 81.136719 528.199219 80.261719 545.535156 C 78.914062 572.101562 77.390625 602.210938 94.28125 625.417969 C 111.328125 648.847656 140.59375 656.695312 166.40625 663.613281 C 183.027344 668.074219 198.730469 672.285156 208.6875 679.535156 C 218.425781 686.621094 227.15625 700.121094 236.390625 714.417969 C 251.011719 737.023438 267.574219 762.644531 295.496094 771.714844 C 302.511719 773.996094 309.601562 774.953125 316.679688 774.945312 C 336.691406 774.945312 356.660156 767.316406 374.839844 760.375 C 391.304688 754.082031 406.859375 748.144531 419.890625 748.144531 C 432.921875 748.144531 448.46875 754.082031 464.941406 760.375 C 483.121094 767.324219 503.089844 774.945312 523.101562 774.945312 C 530.179688 774.945312 537.265625 773.996094 544.28125 771.714844 C 572.207031 762.644531 588.769531 737.023438 603.386719 714.417969 C 612.632812 700.121094 621.355469 686.621094 631.09375 679.535156 C 641.046875 672.285156 656.753906 668.074219 673.371094 663.621094 C 699.195312 656.695312 728.457031 648.851562 745.5 625.421875 C 762.386719 602.21875 760.867188 572.101562 759.519531 545.535156 C 758.644531 528.199219 757.8125 511.828125 761.703125 499.84375 C 765.308594 488.75 775.292969 476.476562 785.871094 463.488281 C 802.976562 442.460938 822.367188 418.636719 822.367188 388.761719 C 822.367188 358.882812 802.976562 335.058594 785.863281 314.035156 Z M 785.863281 314.035156 " fill-opacity="1" fill-rule="nonzero"/></g><path fill="#0e0c0b" d="M 753.050781 436.769531 C 740.492188 452.203125 727.503906 468.164062 721.460938 486.773438 C 715.164062 506.171875 716.230469 527.265625 717.265625 547.671875 C 718.351562 569.132812 719.382812 589.410156 711.292969 600.519531 C 703.050781 611.851562 683.316406 617.144531 662.414062 622.742188 C 642.789062 628.003906 622.503906 633.441406 606.195312 645.320312 C 590.09375 657.035156 578.792969 674.527344 567.855469 691.4375 C 556.015625 709.75 544.839844 727.042969 531.210938 731.464844 C 518.574219 735.570312 499.851562 728.417969 480.023438 720.84375 C 460.695312 713.457031 440.710938 705.828125 419.882812 705.828125 C 399.054688 705.828125 379.0625 713.457031 359.742188 720.84375 C 339.921875 728.417969 321.199219 735.570312 308.554688 731.464844 C 294.933594 727.035156 283.75 709.75 271.910156 691.4375 C 260.972656 674.527344 249.671875 657.035156 233.570312 645.320312 C 217.261719 633.449219 196.976562 628.003906 177.351562 622.742188 C 156.457031 617.144531 136.722656 611.847656 128.472656 600.511719 C 120.390625 589.402344 121.414062 569.132812 122.5 547.664062 C 123.527344 527.257812 124.601562 506.164062 118.304688 486.769531 C 112.261719 468.15625 99.273438 452.195312 86.714844 436.761719 C 72.835938 419.707031 59.71875 403.59375 59.71875 388.761719 C 59.71875 373.925781 72.835938 357.8125 86.71875 340.75 C 99.277344 325.316406 112.265625 309.355469 118.308594 290.746094 C 124.605469 271.347656 123.542969 250.253906 122.507812 229.847656 C 121.421875 208.386719 120.390625 188.109375 128.476562 177 C 136.722656 165.667969 156.457031 160.375 177.359375 154.777344 C 196.980469 149.515625 217.269531 144.078125 233.578125 132.199219 C 249.675781 120.484375 260.980469 102.992188 271.917969 86.082031 C 283.757812 67.769531 294.933594 50.476562 308.5625 46.054688 C 321.199219 41.949219 339.921875 49.101562 359.75 56.675781 C 379.070312 64.054688 399.054688 71.683594 419.890625 71.683594 C 440.71875 71.683594 460.710938 64.054688 480.03125 56.667969 C 499.851562 49.09375 518.574219 41.941406 531.214844 46.046875 C 544.839844 50.476562 556.023438 67.765625 567.863281 86.074219 C 578.800781 102.988281 590.101562 120.476562 606.199219 132.191406 C 622.511719 144.0625 642.796875 149.507812 662.421875 154.769531 C 683.316406 160.371094 703.050781 165.667969 711.300781 177 C 719.382812 188.109375 718.359375 208.378906 717.273438 229.847656 C 716.246094 250.253906 715.171875 271.347656 721.46875 290.746094 C 727.511719 309.355469 740.5 325.316406 753.058594 340.75 C 766.945312 357.8125 780.058594 373.933594 780.058594 388.761719 C 780.058594 403.59375 766.945312 419.707031 753.050781 436.769531 Z M 753.050781 436.769531 " fill-opacity="1" fill-rule="nonzero"/><path fill="#1f62ff" d="M 331.472656 352.414062 C 371.953125 352.414062 404.882812 319.476562 404.882812 278.988281 C 404.882812 238.496094 371.953125 205.558594 331.472656 205.558594 C 290.992188 205.558594 258.0625 238.496094 258.0625 278.988281 C 258.0625 319.476562 290.992188 352.414062 331.472656 352.414062 Z M 331.472656 247.875 C 348.621094 247.875 362.578125 261.835938 362.578125 278.988281 C 362.578125 296.140625 348.621094 310.097656 331.472656 310.097656 C 314.324219 310.097656 300.371094 296.140625 300.371094 278.988281 C 300.371094 261.835938 314.316406 247.875 331.472656 247.875 Z M 567.96875 252.574219 L 303.5625 552.910156 C 299.382812 557.65625 293.542969 560.085938 287.675781 560.085938 C 282.710938 560.085938 277.726562 558.347656 273.707031 554.800781 C 264.945312 547.078125 264.089844 533.707031 271.8125 524.9375 L 536.214844 224.601562 C 543.9375 215.835938 557.308594 214.980469 566.070312 222.703125 C 574.835938 230.433594 575.691406 243.804688 567.96875 252.574219 Z M 508.308594 425.105469 C 467.824219 425.105469 434.894531 458.042969 434.894531 498.53125 C 434.894531 539.023438 467.824219 571.960938 508.308594 571.960938 C 548.789062 571.960938 581.71875 539.023438 581.71875 498.53125 C 581.71875 458.042969 548.789062 425.105469 508.308594 425.105469 Z M 508.308594 529.644531 C 491.15625 529.644531 477.203125 515.6875 477.203125 498.53125 C 477.203125 481.378906 491.15625 467.421875 508.308594 467.421875 C 525.457031 467.421875 539.410156 481.378906 539.410156 498.53125 C 539.410156 515.6875 525.457031 529.644531 508.308594 529.644531 Z M 508.308594 529.644531 " fill-opacity="1" fill-rule="nonzero"/></svg>