<svg xmlns="http://www.w3.org/2000/svg" version="1.1" xmlns:xlink="http://www.w3.org/1999/xlink" xmlns:svgjs="http://svgjs.dev/svgjs" width="2000" height="313" viewBox="0 0 2000 313"><g transform="matrix(1,0,0,1,-1.212080736809071,-0.013126358994924203)"><svg viewBox="0 0 396 62" data-background-color="#ffffff" preserveAspectRatio="xMidYMid meet" height="313" width="2000" xmlns="http://www.w3.org/2000/svg" xmlns:xlink="http://www.w3.org/1999/xlink"><g id="tight-bounds" transform="matrix(1,0,0,1,0.2399919858881958,0.0026001094494745303)"><svg viewBox="0 0 395.52 61.994799781101065" height="61.994799781101065" width="395.52"><g><svg viewBox="0 0 484.41949614623144 75.92913044510387" height="61.994799781101065" width="395.52"><g transform="matrix(1,0,0,1,88.89949614623146,10.493823382789323)"><svg viewBox="0 0 395.52 54.94148367952522" height="54.94148367952522" width="395.52"><g id="textblocktransform"><svg viewBox="0 0 395.52 54.94148367952522" height="54.94148367952522" width="395.52" id="textblock"><g><svg viewBox="0 0 395.52 54.94148367952522" height="54.94148367952522" width="395.52"><g transform="matrix(1,0,0,1,0,0)"><svg width="395.52" viewBox="3.450000047683716 -37 269.5799865722656 37.45000076293945" height="54.94148367952522" data-palette-color="#1f62ff"><path d="M15.65-34.9Q21.15-34.9 25.33-32.75 29.5-30.6 31.78-26.63 34.05-22.65 34.05-17.4L34.05-17.4Q34.05-12.15 31.78-8.22 29.5-4.3 25.33-2.15 21.15 0 15.65 0L15.65 0 3.45 0 3.45-34.9 15.65-34.9ZM15.4-5.95Q20.9-5.95 23.9-8.95 26.9-11.95 26.9-17.4L26.9-17.4Q26.9-22.85 23.9-25.93 20.9-29 15.4-29L15.4-29 10.45-29 10.45-5.95 15.4-5.95ZM37.5-13.95Q37.5-18.15 39.17-21.4 40.85-24.65 43.72-26.4 46.6-28.15 50.15-28.15L50.15-28.15Q53.25-28.15 55.57-26.9 57.9-25.65 59.3-23.75L59.3-23.75 59.3-27.7 66.35-27.7 66.35 0 59.3 0 59.3-4.05Q57.95-2.1 55.57-0.83 53.2 0.45 50.1 0.45L50.1 0.45Q46.6 0.45 43.72-1.35 40.85-3.15 39.17-6.43 37.5-9.7 37.5-13.95L37.5-13.95ZM59.3-13.85Q59.3-16.4 58.3-18.23 57.3-20.05 55.6-21.03 53.9-22 51.95-22L51.95-22Q50-22 48.35-21.05 46.7-20.1 45.67-18.28 44.65-16.45 44.65-13.95L44.65-13.95Q44.65-11.45 45.67-9.58 46.7-7.7 48.37-6.7 50.05-5.7 51.95-5.7L51.95-5.7Q53.9-5.7 55.6-6.68 57.3-7.65 58.3-9.47 59.3-11.3 59.3-13.85L59.3-13.85ZM104.9-27.7L111.59-27.7 103.5 0 95.95 0 90.9-19.35 85.84 0 78.25 0 70.09-27.7 77.2-27.7 82.09-6.6 87.4-27.7 94.8-27.7 100-6.65 104.9-27.7ZM130.74-28.1Q135.69-28.1 138.74-24.98 141.79-21.85 141.79-16.25L141.79-16.25 141.79 0 134.79 0 134.79-15.3Q134.79-18.6 133.14-20.38 131.49-22.15 128.64-22.15L128.64-22.15Q125.74-22.15 124.07-20.38 122.39-18.6 122.39-15.3L122.39-15.3 122.39 0 115.39 0 115.39-27.7 122.39-27.7 122.39-24.25Q123.79-26.05 125.97-27.08 128.14-28.1 130.74-28.1L130.74-28.1ZM168.24-17.9Q171.19-17.35 173.09-14.95 174.99-12.55 174.99-9.45L174.99-9.45Q174.99-6.65 173.62-4.53 172.24-2.4 169.64-1.2 167.04 0 163.49 0L163.49 0 148.44 0 148.44-34.9 162.84-34.9Q166.39-34.9 168.97-33.75 171.54-32.6 172.87-30.55 174.19-28.5 174.19-25.9L174.19-25.9Q174.19-22.85 172.56-20.8 170.94-18.75 168.24-17.9L168.24-17.9ZM155.44-29.25L155.44-20.5 161.84-20.5Q164.34-20.5 165.69-21.63 167.04-22.75 167.04-24.85L167.04-24.85Q167.04-26.95 165.69-28.1 164.34-29.25 161.84-29.25L161.84-29.25 155.44-29.25ZM162.49-5.7Q165.04-5.7 166.47-6.9 167.89-8.1 167.89-10.3L167.89-10.3Q167.89-12.55 166.39-13.83 164.89-15.1 162.34-15.1L162.34-15.1 155.44-15.1 155.44-5.7 162.49-5.7ZM178.79-13.95Q178.79-18.15 180.46-21.4 182.14-24.65 185.01-26.4 187.89-28.15 191.44-28.15L191.44-28.15Q194.54-28.15 196.86-26.9 199.19-25.65 200.59-23.75L200.59-23.75 200.59-27.7 207.64-27.7 207.64 0 200.59 0 200.59-4.05Q199.24-2.1 196.86-0.83 194.49 0.45 191.39 0.45L191.39 0.45Q187.89 0.45 185.01-1.35 182.14-3.15 180.46-6.43 178.79-9.7 178.79-13.95L178.79-13.95ZM200.59-13.85Q200.59-16.4 199.59-18.23 198.59-20.05 196.89-21.03 195.19-22 193.24-22L193.24-22Q191.29-22 189.64-21.05 187.99-20.1 186.96-18.28 185.94-16.45 185.94-13.95L185.94-13.95Q185.94-11.45 186.96-9.58 187.99-7.7 189.66-6.7 191.34-5.7 193.24-5.7L193.24-5.7Q195.19-5.7 196.89-6.68 198.59-7.65 199.59-9.47 200.59-11.3 200.59-13.85L200.59-13.85ZM229.84-28.1Q234.79-28.1 237.84-24.98 240.89-21.85 240.89-16.25L240.89-16.25 240.89 0 233.89 0 233.89-15.3Q233.89-18.6 232.24-20.38 230.59-22.15 227.74-22.15L227.74-22.15Q224.84-22.15 223.16-20.38 221.49-18.6 221.49-15.3L221.49-15.3 221.49 0 214.49 0 214.49-27.7 221.49-27.7 221.49-24.25Q222.89-26.05 225.06-27.08 227.24-28.1 229.84-28.1L229.84-28.1ZM273.03 0L263.93 0 254.53-11.8 254.53 0 247.53 0 247.53-37 254.53-37 254.53-15.95 263.83-27.7 272.93-27.7 260.73-13.8 273.03 0Z" opacity="1" transform="matrix(1,0,0,1,0,0)" fill="#ffffff" class="wordmark-text-0" data-fill-palette-color="primary" id="text-0"></path></svg></g></svg></g></svg></g></svg></g><g><svg viewBox="0 0 75.92913044510387 75.92913044510387" height="75.92913044510387" width="75.92913044510387"><g data-palette-color="#1f62ff"><rect width="20.75396232166172" height="75.92913044510387" fill="#ffffff" stroke="transparent" data-fill-palette-color="accent" x="0" fill-opacity="0.5"></rect><rect width="20.75396232166172" height="75.92913044510387" fill="#ffffff" stroke="transparent" data-fill-palette-color="accent" x="25.30971014836795" fill-opacity="0.75"></rect><rect width="20.75396232166172" height="75.92913044510387" fill="#ffffff" stroke="transparent" data-fill-palette-color="accent" x="50.6194202967359" fill-opacity="1"></rect></g></svg></g></svg></g><defs></defs></svg><rect width="395.52" height="61.994799781101065" fill="none" stroke="none" visibility="hidden"></rect></g></svg></g></svg>